{"title":"Half Girlfriend 2017 720p Esub HD 5.1 Hindi GOPISAHI","magnet":"magnet:?xt=urn:btih:407b39553007120e0c9c5062d8c055101b037e56&dn=Half+Girlfriend+2017+720p+Esub+HD+5.1+Hindi+GOPISAHI&tr=udp%3A%2F%2Ftracker.leechers-paradise.org%3A6969&tr=udp%3A%2F%2Fzer0day.ch%3A1337&tr=udp%3A%2F%2Fopen.demonii.com%3A1337&tr=udp%3A%2F%2Ftracker.coppersurfer.tk%3A6969&tr=udp%3A%2F%2Fexodus.desync.com%3A6969","uploader":"jatt13","categoryP":"video","categoryS":"hd___movies","size":"812532268","seeders":"1","leechers":"114","description":"Format                         : Matroska\r\nFormat version                 : Version 4 / Version 2\r\nFile size                      : 775 MiB\r\nDuration                       : 2 h 9 min\r\nOverall bit rate               : 838 kb/s\r\nMovie name                     : Half Girlfriend 2017 GOPISAHI\r\n\r\nVideo\r\nFormat                         : AVC\r\nCodec ID                       : V_MPEG4/ISO/AVC\r\nDuration                       : 2 h 9 min\r\nBit rate                       : 750 kb/s\r\nWidth                          : 1 280 pixels\r\nHeight                         : 536 pixels\r\nDisplay aspect ratio           : 2.40:1\r\nFrame rate mode                : Constant\r\nFrame rate                     : 25.000 FPS\r\nStream size                    : 693 MiB (89%)\r\nWriting library                : x264 core 152 r2851 ba24899\r\nLanguage                       : Hindi\r\n\r\nAudio\r\nFormat                         : AAC\r\nDuration                       : 2 h 9 min\r\nBit rate                       : 85.9 kb/s\r\nChannel(s)                     : 6 channels\r\nChannel positions              : Front: L C R, Side: L R, LFE\r\nSampling rate                  : 44.1 kHz\r\nFrame rate                     : 43.066 FPS (1024 SPF)\r\nStream size                    : 79.5 MiB (10%)\r\nLanguage                       : Hindi\r\n\r\nText\r\nLanguage                       : English","last_updated":"2017-12-03T12:05:49.401Z","parsed":{"xt":"urn:btih:407b39553007120e0c9c5062d8c055101b037e56","dn":"Half Girlfriend 2017 720p Esub HD 5.1 Hindi GOPISAHI","tr":["udp://exodus.desync.com:6969","udp://open.demonii.com:1337","udp://tracker.coppersurfer.tk:6969","udp://tracker.leechers-paradise.org:6969","udp://zer0day.ch:1337"],"infoHash":"407b39553007120e0c9c5062d8c055101b037e56","infoHashBuffer":{"type":"Buffer","data":[64,123,57,85,48,7,18,14,12,156,80,98,216,192,85,16,27,3,126,86]},"name":"Half Girlfriend 2017 720p Esub HD 5.1 Hindi GOPISAHI","announce":["udp://exodus.desync.com:6969","udp://open.demonii.com:1337","udp://tracker.coppersurfer.tk:6969","udp://tracker.leechers-paradise.org:6969","udp://zer0day.ch:1337"],"urlList":[]}}